Source	dvdrip
Rip Specs	General
Complete name : D:DC++ downloadsDablova past AKA The Devil's Trap (F. Vlacil, 1962).avi
Format : AVI
Format/Info : Audio Video Interleave
File size : 1.16 GiB
Duration : 1h 25mn
Overall bit rate : 1 933 Kbps
Writing application : VirtualDubMod 1.5.10.2 (build 2540/release)
Writing library : VirtualDubMod build 2540/release

Video
ID : 0
Format : MPEG-4 Visual
Format profile : Advanced Simple@L5
Format settings, BVOP : Yes
Format settings, QPel : No
Format settings, GMC : No warppoints
Format settings, Matrix : Default (MPEG)
Codec ID : XVID
Codec ID/Hint : XviD
Duration : 1h 25mn
Bit rate : 1 795 Kbps
Width : 640 pixels
Height : 480 pixels
Display aspect ratio : 4:3
Frame rate : 25.000 fps
Color space : YUV
Chroma subsampling : 4:2:0
Bit depth : 8 bits
Scan type : Progressive
Compression mode : Lossy
Bits/(Pixel*Frame) : 0.234
Stream size : 1.08 GiB (93%)
Writing library : XviD 58

Audio
ID : 1
Format : MPEG Audio
Format version : Version 1
Format profile : Layer 3
Mode : Joint stereo
Mode extension : MS Stereo
Codec ID : 55
Codec ID/Hint : MP3
Duration : 1h 25mn
Bit rate mode : Constant
Bit rate : 128 Kbps
Channel(s) : 2 channels
Sampling rate : 48.0 KHz
Compression mode : Lossy
Stream size : 78.5 MiB (7%)
Alignment : Aligned on interleaves
Interleave, duration : 40 ms (1.00 video frame)
Interleave, preload duration : 504 ms

Extras too - 2 small interview with czech subs.